<?xml version="1.0" encoding="UTF-8" standalone="no"?>
<!-- Created with Inkscape (http://www.inkscape.org/) -->

<svg
   width="37.488232mm"
   height="15.933256mm"
   viewBox="0 0 37.488232 15.933256"
   version="1.1"
   id="svg227"
   inkscape:version="1.1 (c4e8f9e, 2021-05-24)"
   sodipodi:docname="logo.svg"
   xmlns:inkscape="http://www.inkscape.org/namespaces/inkscape"
   xmlns:sodipodi="http://sodipodi.sourceforge.net/DTD/sodipodi-0.dtd"
   xmlns="http://www.w3.org/2000/svg"
   xmlns:svg="http://www.w3.org/2000/svg">
  <sodipodi:namedview
     id="namedview229"
     pagecolor="#ffffff"
     bordercolor="#666666"
     borderopacity="1.0"
     inkscape:pageshadow="2"
     inkscape:pageopacity="0.0"
     inkscape:pagecheckerboard="0"
     inkscape:document-units="mm"
     showgrid="false"
     fit-margin-top="0"
     fit-margin-left="0"
     fit-margin-right="0"
     fit-margin-bottom="0"
     inkscape:zoom="0.49798681"
     inkscape:cx="-103.41639"
     inkscape:cy="306.23301"
     inkscape:window-width="1366"
     inkscape:window-height="728"
     inkscape:window-x="0"
     inkscape:window-y="0"
     inkscape:window-maximized="1"
     inkscape:current-layer="layer1" />
  <defs
     id="defs224" />
  <g
     inkscape:label="Layer 1"
     inkscape:groupmode="layer"
     id="layer1"
     transform="translate(-132.14697,-67.478801)">
    <path
       d="m 133.53004,82.540662 c -0.18603,0.0015 -0.3629,-0.01577 -0.53062,-0.05167 -0.16566,-0.03797 -0.3119,-0.102976 -0.43872,-0.194998 -0.12475,-0.09205 -0.22493,-0.215292 -0.30056,-0.369729 -0.0736,-0.154464 -0.11125,-0.348483 -0.11307,-0.582057 -0.002,-0.23151 0.0266,-0.427064 0.0853,-0.586687 0.0607,-0.161713 0.14861,-0.292629 0.26358,-0.392747 0.11704,-0.100145 0.26014,-0.172588 0.4293,-0.217303 0.1712,-0.04683 0.36635,-0.07109 0.58545,-0.07281 0.21911,-0.0017 0.40731,0.01027 0.56461,0.0359 0.15729,0.02357 0.28982,0.05458 0.39762,0.093 0.10985,0.03842 0.19908,0.08112 0.26766,0.128138 0.0706,0.04493 0.12676,0.08686 0.16841,0.125809 L 134.9,79.26491 c -2.2e-4,-0.02686 -4e-4,-0.05374 -6.1e-4,-0.08059 0.002,-0.02691 0.007,-0.05069 0.0149,-0.07144 0.008,-0.02074 0.0194,-0.03736 0.0337,-0.04987 0.0164,-0.01254 0.0402,-0.01892 0.0712,-0.01916 0.031,-2.64e-4 0.0548,0.0058 0.0715,0.01805 0.0166,0.01019 0.0291,0.02458 0.0375,0.0431 0.008,0.01855 0.0138,0.04125 0.016,0.0681 0.002,0.02479 0.004,0.05268 0.004,0.08369 l 0.0241,3.07258 c 5.1e-4,0.06615 -0.0126,0.110701 -0.0393,0.133641 -0.0246,0.02294 -0.0514,0.0345 -0.0803,0.03474 -0.0351,2.65e-4 -0.0652,-0.0098 -0.0902,-0.03032 -0.025,-0.02045 -0.0377,-0.06376 -0.0382,-0.12991 l -0.003,-0.43098 c -0.022,0.08906 -0.0617,0.166899 -0.11909,0.233495 -0.0574,0.06453 -0.12618,0.11983 -0.20644,0.165946 -0.0782,0.04609 -0.16471,0.08501 -0.25955,0.116761 -0.0948,0.02969 -0.19079,0.05316 -0.28781,0.07046 -0.095,0.01728 -0.18788,0.02937 -0.27878,0.0363 -0.0888,0.0069 -0.16838,0.01061 -0.23866,0.01117 z m -0.001,-0.182933 c 0.12401,-0.003 0.25932,-0.01341 0.40595,-0.03109 0.14661,-0.01974 0.28692,-0.05289 0.42091,-0.0994 0.134,-0.04654 0.25236,-0.110516 0.35509,-0.191928 0.10271,-0.08141 0.17217,-0.187378 0.20836,-0.317897 l -0.009,-1.116171 c -0.0478,-0.03683 -0.10911,-0.07564 -0.18383,-0.116391 -0.0727,-0.04077 -0.16495,-0.07829 -0.27685,-0.112553 -0.10984,-0.03635 -0.24236,-0.0653 -0.39756,-0.08681 -0.15314,-0.02154 -0.33305,-0.03151 -0.53975,-0.0299 -0.19844,0.0016 -0.3688,0.02355 -0.5111,0.06601 -0.14023,0.04244 -0.25651,0.108453 -0.34883,0.198068 -0.0903,0.08752 -0.15657,0.199681 -0.19891,0.336444 -0.0403,0.134673 -0.0597,0.296068 -0.0582,0.484161 0.002,0.196347 0.0318,0.360468 0.0907,0.492283 0.061,0.129752 0.14239,0.233522 0.24428,0.311256 0.1019,0.07776 0.2212,0.133668 0.35789,0.167746 0.13875,0.03199 0.28563,0.04739 0.44066,0.04617 z m 4.03612,-2.133838 c -0.19225,0.0015 -0.36264,0.01937 -0.5112,0.0536 -0.14857,0.03424 -0.27528,0.08898 -0.3801,0.164201 -0.10279,0.07316 -0.18267,0.167851 -0.23964,0.284056 -0.057,0.116205 -0.0889,0.258049 -0.0959,0.42553 l 2.33775,-0.01828 -0.001,-0.167428 c -8.2e-4,-0.103345 -0.0212,-0.200342 -0.0612,-0.290988 -0.0379,-0.09065 -0.10055,-0.169757 -0.18788,-0.237278 -0.0874,-0.06752 -0.20146,-0.120386 -0.34232,-0.158565 -0.14087,-0.03815 -0.31361,-0.05646 -0.51824,-0.05485 z m -0.14481,2.103384 c 0.19638,-0.0015 0.36785,-0.01527 0.5144,-0.04122 0.14656,-0.02595 0.27242,-0.05691 0.37757,-0.09287 0.10514,-0.03598 0.19063,-0.07281 0.25648,-0.110543 0.0679,-0.03773 0.12039,-0.06916 0.1574,-0.09424 0.0124,-0.0042 0.0206,-0.0064 0.0248,-0.0064 0.0227,-1.85e-4 0.0435,0.01103 0.0623,0.03363 0.0208,0.0205 0.0314,0.04315 0.0315,0.06797 1.9e-4,0.02273 -0.01,0.04141 -0.0306,0.05604 -0.0185,0.01876 -0.0585,0.04802 -0.12025,0.08776 -0.0596,0.03974 -0.14613,0.08072 -0.25948,0.122952 -0.11337,0.04016 -0.25365,0.07641 -0.42084,0.108717 -0.16719,0.03233 -0.3655,0.04937 -0.59495,0.05117 -0.23976,0.0019 -0.4436,-0.02651 -0.61147,-0.08514 -0.16791,-0.05864 -0.30499,-0.14127 -0.41125,-0.24795 -0.10625,-0.106654 -0.18375,-0.235241 -0.23246,-0.385763 -0.0487,-0.150521 -0.0738,-0.315674 -0.0752,-0.495511 -0.002,-0.239766 0.0348,-0.439526 0.11004,-0.599308 0.0752,-0.159755 0.17862,-0.287682 0.31017,-0.383805 0.13359,-0.09819 0.29014,-0.16764 0.46966,-0.208306 0.18158,-0.04069 0.37677,-0.06186 0.58552,-0.0635 0.42995,-0.0034 0.752,0.07681 0.96621,0.240506 0.21624,0.161608 0.32557,0.395367 0.32795,0.701278 2.4e-4,0.02895 -0.002,0.06099 -0.005,0.09618 -0.004,0.03516 -0.01,0.06932 -0.0178,0.102447 -0.006,0.03106 -0.014,0.058 -0.0241,0.0808 -0.008,0.02074 -0.0163,0.03114 -0.0246,0.03119 l -0.91155,0.0071 -1.53807,-0.01897 c 0.006,0.192194 0.0317,0.355283 0.0782,0.489294 0.0486,0.131921 0.11764,0.239898 0.2072,0.323956 0.0916,0.08197 0.20368,0.142055 0.33629,0.180314 0.13255,0.03617 0.2867,0.05355 0.46238,0.05218 z m 3.3781,0.156528 c -0.0476,3.7e-4 -0.0828,-0.01384 -0.10576,-0.0426 -0.023,-0.02876 -0.0407,-0.05445 -0.0533,-0.0771 l -1.22537,-2.055466 c -0.0126,-0.02056 -0.021,-0.03911 -0.0252,-0.05562 -0.004,-0.01855 -0.006,-0.03612 -0.007,-0.05265 -2.6e-4,-0.03514 0.01,-0.0621 0.0304,-0.08086 0.0205,-0.02082 0.0452,-0.03135 0.0742,-0.03159 0.0227,-1.58e-4 0.0466,0.0079 0.0715,0.02426 0.0249,0.01426 0.0468,0.03786 0.0657,0.0708 l 1.17255,2.043457 1.14041,-2.061554 c 0.0184,-0.03323 0.0399,-0.05715 0.0645,-0.07184 0.0247,-0.01672 0.0484,-0.02519 0.0711,-0.02535 0.029,-2.38e-4 0.0538,0.0099 0.0747,0.03043 0.0208,0.01844 0.0314,0.04522 0.0316,0.08035 2.7e-4,0.03307 -0.01,0.06932 -0.0302,0.108771 l -1.19304,2.074404 c -0.0143,0.02283 -0.0337,0.04884 -0.0583,0.07797 -0.0246,0.02913 -0.0576,0.04387 -0.0989,0.04419 z m 3.42696,-2.312009 c -0.19222,0.0015 -0.36261,0.01937 -0.5112,0.05361 -0.14857,0.03424 -0.27525,0.08898 -0.38008,0.1642 -0.10279,0.07316 -0.18266,0.167826 -0.23963,0.284031 -0.057,0.116205 -0.0889,0.258074 -0.0959,0.425555 l 2.33778,-0.01828 -0.001,-0.167429 c -7.9e-4,-0.103346 -0.0212,-0.200342 -0.0612,-0.290988 -0.0379,-0.09065 -0.10054,-0.169757 -0.18791,-0.237279 -0.0873,-0.06755 -0.20145,-0.120385 -0.34232,-0.158565 -0.14086,-0.03818 -0.31361,-0.05646 -0.51824,-0.05485 z m -0.14478,2.103385 c 0.19637,-0.0015 0.36782,-0.01527 0.5144,-0.04122 0.14655,-0.02596 0.27242,-0.05691 0.37756,-0.0929 0.10512,-0.03596 0.19063,-0.07279 0.25649,-0.110517 0.0679,-0.03773 0.12038,-0.06916 0.1574,-0.09424 0.0124,-0.0042 0.0206,-0.0064 0.0247,-0.0064 0.0228,-1.86e-4 0.0435,0.01103 0.0623,0.03363 0.0208,0.0205 0.0314,0.04315 0.0315,0.06797 1.8e-4,0.02273 -0.01,0.04141 -0.0306,0.05604 -0.0185,0.01876 -0.0585,0.048 -0.12025,0.08776 -0.0596,0.03974 -0.14613,0.08072 -0.25951,0.122952 -0.11337,0.04016 -0.25365,0.07641 -0.42082,0.108717 -0.16719,0.03231 -0.36549,0.04937 -0.59494,0.05117 -0.23976,0.0019 -0.4436,-0.02651 -0.6115,-0.08514 -0.16788,-0.05863 -0.30496,-0.141287 -0.41122,-0.247941 -0.10626,-0.106653 -0.18375,-0.235241 -0.23249,-0.385762 -0.0487,-0.150522 -0.0738,-0.315701 -0.0752,-0.495512 -0.002,-0.239792 0.0348,-0.439552 0.11001,-0.599308 0.0753,-0.159755 0.17865,-0.287681 0.31018,-0.383804 0.13361,-0.09819 0.29016,-0.16764 0.46968,-0.208307 0.18159,-0.04072 0.37677,-0.06186 0.58553,-0.0635 0.42995,-0.0034 0.752,0.07681 0.9662,0.24048 0.21625,0.161634 0.32555,0.395394 0.32795,0.701305 2.2e-4,0.02895 -0.002,0.06099 -0.005,0.09615 -0.004,0.03519 -0.01,0.06935 -0.0178,0.102474 -0.006,0.03106 -0.014,0.058 -0.0242,0.0808 -0.008,0.02074 -0.0163,0.03114 -0.0246,0.0312 l -0.91154,0.0071 -1.53807,-0.01897 c 0.006,0.192193 0.0317,0.355282 0.0782,0.489294 0.0486,0.131895 0.11763,0.239897 0.20716,0.323929 0.0916,0.08197 0.20371,0.142081 0.33629,0.180314 0.13258,0.03617 0.28673,0.05358 0.46241,0.0522 z m 2.60101,-0.08546 c 4.8e-4,0.05995 -0.006,0.11168 -0.0205,0.155204 -0.0142,0.04143 -0.0471,0.06236 -0.0987,0.06279 -0.031,2.38e-4 -0.0548,-0.0047 -0.0714,-0.01495 -0.0166,-0.01228 -0.0292,-0.02768 -0.0376,-0.04622 -0.008,-0.02061 -0.0138,-0.04331 -0.016,-0.06808 -0.002,-0.02479 -0.004,-0.05167 -0.004,-0.08059 l -0.0236,-3.019875 c -2.4e-4,-0.03101 5.8e-4,-0.05996 0.002,-0.08684 0.002,-0.02691 0.007,-0.04969 0.015,-0.06834 0.0102,-0.02074 0.0235,-0.03739 0.0399,-0.04993 0.0185,-0.01254 0.0433,-0.01894 0.0743,-0.01918 0.0248,-1.86e-4 0.0445,0.0058 0.0591,0.01815 0.0166,0.01225 0.0292,0.02871 0.0376,0.04932 0.008,0.02059 0.0138,0.04432 0.0161,0.07117 0.002,0.02479 0.004,0.05062 0.004,0.0775 z m 2.47325,0.228705 c -0.28525,0.0022 -0.52629,-0.02379 -0.72308,-0.07805 -0.19683,-0.05636 -0.35661,-0.136736 -0.4794,-0.24122 -0.1207,-0.104484 -0.20852,-0.231934 -0.26345,-0.382403 -0.0549,-0.150495 -0.0831,-0.320807 -0.0846,-0.510963 -0.002,-0.219101 0.0268,-0.4064 0.0855,-0.561896 0.0608,-0.157585 0.15381,-0.287496 0.27911,-0.389757 0.12735,-0.102288 0.28697,-0.177959 0.47882,-0.227013 0.19394,-0.04905 0.42317,-0.07461 0.68776,-0.07668 0.26458,-0.0021 0.49315,0.0199 0.68577,0.06593 0.19465,0.04604 0.35544,0.119195 0.48231,0.219472 0.12896,0.100304 0.22402,0.228732 0.28519,0.385366 0.0632,0.154543 0.0957,0.341365 0.0974,0.560466 0.001,0.190157 -0.0241,0.360892 -0.0766,0.512207 -0.0526,0.151316 -0.1394,0.280141 -0.26053,0.38653 -0.11906,0.106336 -0.27657,0.18923 -0.47247,0.248629 -0.19592,0.05736 -0.43651,0.08715 -0.72175,0.08938 z m -0.001,-0.182933 c 0.18809,-0.0015 0.35023,-0.01617 0.48646,-0.04411 0.13618,-0.03 0.25162,-0.07019 0.34631,-0.120544 0.0968,-0.05035 0.17383,-0.108849 0.2312,-0.175445 0.0594,-0.0666 0.10538,-0.138271 0.13784,-0.215027 0.0345,-0.07882 0.0566,-0.159597 0.0663,-0.242358 0.0118,-0.08485 0.0173,-0.169651 0.0166,-0.254397 -0.001,-0.19222 -0.0276,-0.355335 -0.0782,-0.489294 -0.0507,-0.133959 -0.12903,-0.242914 -0.2351,-0.32684 -0.10608,-0.08393 -0.24091,-0.143827 -0.4045,-0.179758 -0.16359,-0.03799 -0.35806,-0.05612 -0.58335,-0.05437 -0.22736,0.0018 -0.42254,0.02297 -0.58553,0.0635 -0.16094,0.03847 -0.29379,0.100489 -0.39854,0.186055 -0.10475,0.08559 -0.1814,0.195739 -0.22995,0.330491 -0.0486,0.134726 -0.0721,0.298212 -0.0706,0.490459 6.7e-4,0.08475 0.006,0.169439 0.0175,0.254105 0.013,0.08258 0.0364,0.16301 0.0701,0.2413 0.0357,0.0762 0.0828,0.147162 0.14118,0.212858 0.0605,0.06567 0.13843,0.122925 0.2339,0.171794 0.0975,0.04887 0.21463,0.08721 0.35128,0.115093 0.13663,0.0258 0.29901,0.03797 0.4871,0.03649 z m 4.09358,-2.31722 c 0.18603,-0.0015 0.36187,0.0168 0.52752,0.0548 0.16772,0.03588 0.31396,0.09985 0.43871,0.191902 0.12681,0.09202 0.22701,0.215265 0.30057,0.369729 0.0756,0.154437 0.11435,0.348456 0.11618,0.58203 0.002,0.231484 -0.0277,0.428096 -0.0884,0.589809 -0.0587,0.159624 -0.14656,0.289508 -0.26361,0.389652 -0.11496,0.100119 -0.25807,0.173593 -0.42926,0.220398 -0.16915,0.04474 -0.3633,0.06797 -0.5824,0.06967 -0.16743,0.0013 -0.32149,-0.0078 -0.4622,-0.02738 -0.14073,-0.01958 -0.26908,-0.0444 -0.38507,-0.07451 -0.11393,-0.03217 -0.21654,-0.06755 -0.30779,-0.106098 -0.0913,-0.03858 -0.17217,-0.07617 -0.24273,-0.112845 l 0.003,1.128633 c 2.1e-4,0.02688 -6.4e-4,0.0527 -0.003,0.07755 2.1e-4,0.02685 -0.004,0.05067 -0.0118,0.07138 -0.008,0.02074 -0.0204,0.03739 -0.0368,0.0499 -0.0144,0.01252 -0.037,0.01889 -0.068,0.01916 -0.031,2.38e-4 -0.0548,-0.0068 -0.0715,-0.02117 -0.0146,-0.01228 -0.0261,-0.02977 -0.0345,-0.05244 -0.008,-0.02059 -0.0138,-0.04535 -0.0161,-0.07427 -2.1e-4,-0.02688 -4.5e-4,-0.05583 -6.9e-4,-0.08684 l -0.0237,-3.032258 c -5e-4,-0.06614 0.0116,-0.107579 0.0362,-0.124327 0.0247,-0.01879 0.0515,-0.02831 0.0804,-0.02852 0.0351,-2.91e-4 0.0631,0.0088 0.0839,0.02725 0.0208,0.01635 0.0315,0.05763 0.032,0.123772 l 0.003,0.409257 c 0.0241,-0.08699 0.0659,-0.162771 0.12536,-0.22733 0.0594,-0.06662 0.12927,-0.122978 0.20952,-0.169068 0.0803,-0.04818 0.16674,-0.0871 0.25953,-0.116761 0.0949,-0.03175 0.18976,-0.05625 0.28469,-0.07355 0.097,-0.01728 0.19098,-0.02939 0.28189,-0.0363 0.0909,-0.0069 0.17251,-0.01066 0.24487,-0.01122 z m 0.001,0.182933 c -0.12401,0.003 -0.25932,0.01442 -0.40592,0.03418 -0.14664,0.01767 -0.28695,0.04979 -0.42096,0.09631 -0.13398,0.04651 -0.25236,0.11049 -0.35507,0.191929 -0.10271,0.08141 -0.17216,0.187378 -0.20836,0.317897 l 0.009,1.190572 c 0.0891,0.03238 0.1845,0.06575 0.28604,0.100092 0.10361,0.03225 0.21342,0.06138 0.32936,0.08734 0.11596,0.02598 0.23913,0.04672 0.36949,0.06223 0.13033,0.0155 0.26786,0.0227 0.41254,0.02159 0.19843,-0.0016 0.36777,-0.02355 0.508,-0.06599 0.14229,-0.04246 0.25857,-0.107447 0.34885,-0.194971 0.0923,-0.08961 0.15862,-0.201771 0.19891,-0.336444 0.0423,-0.136763 0.0628,-0.299191 0.0613,-0.487283 -0.001,-0.19431 -0.0328,-0.357347 -0.0937,-0.489188 -0.0589,-0.131816 -0.13933,-0.236617 -0.24122,-0.314378 -0.10189,-0.07774 -0.22222,-0.132609 -0.36097,-0.164598 -0.13668,-0.03408 -0.28255,-0.05051 -0.43757,-0.04929 z m 6.16667,0.689715 c -0.001,-0.14261 -0.0146,-0.261382 -0.04,-0.356261 -0.0236,-0.09491 -0.0603,-0.170074 -0.11033,-0.225478 -0.0479,-0.05752 -0.10822,-0.09734 -0.18071,-0.119512 -0.0725,-0.02217 -0.15849,-0.03289 -0.25771,-0.03209 -0.26458,0.0021 -0.48426,0.05752 -0.65913,0.16637 -0.1728,0.108849 -0.31631,0.257783 -0.43061,0.446775 l 0.0116,1.488228 c 3e-4,0.03723 -0.004,0.0662 -0.0117,0.08692 -0.006,0.02072 -0.0152,0.03733 -0.0275,0.04982 -0.0123,0.01045 -0.0257,0.01778 -0.0401,0.02204 -0.0124,0.0021 -0.0248,0.0033 -0.0372,0.0034 -0.0145,1.05e-4 -0.03,-7.94e-4 -0.0465,-0.0028 -0.0145,-0.002 -0.028,-0.008 -0.0405,-0.01828 -0.0125,-0.01024 -0.0229,-0.02566 -0.0314,-0.04625 -0.008,-0.02268 -0.0128,-0.05366 -0.0131,-0.09292 l -0.0116,-1.488254 c -0.001,-0.188093 -0.0471,-0.335519 -0.13679,-0.442304 -0.0877,-0.106813 -0.22865,-0.159465 -0.42293,-0.15793 -0.14677,0.0011 -0.28305,0.01873 -0.40889,0.05281 -0.12581,0.03405 -0.23812,0.07938 -0.33689,0.135943 -0.0967,0.05657 -0.17786,0.123375 -0.24339,0.200369 -0.0656,0.07493 -0.11044,0.153828 -0.1346,0.236696 l 0.0116,1.475819 c 5.6e-4,0.07236 -0.0115,0.117925 -0.0361,0.136737 -0.0226,0.0167 -0.0463,0.02516 -0.0711,0.02535 -0.0145,1.06e-4 -0.03,-7.94e-4 -0.0465,-0.0027 -0.0165,-0.002 -0.0321,-0.008 -0.0466,-0.01826 -0.0125,-0.01024 -0.024,-0.02564 -0.0345,-0.04622 -0.008,-0.02267 -0.0128,-0.05366 -0.0131,-0.09292 l -0.0161,-2.061818 c -5e-4,-0.06615 0.0126,-0.107606 0.0393,-0.124355 0.0267,-0.01881 0.0556,-0.02834 0.0866,-0.02858 0.0351,-2.64e-4 0.0631,0.0088 0.0839,0.02725 0.0229,0.01635 0.0346,0.0576 0.0351,0.123746 l 0.003,0.381371 c 0.0323,-0.09329 0.0834,-0.177404 0.15306,-0.25236 0.0718,-0.07498 0.15603,-0.137663 0.25279,-0.188013 0.0988,-0.05247 0.20907,-0.0926 0.33083,-0.120412 0.12174,-0.02783 0.2498,-0.04228 0.38412,-0.04331 0.15711,-0.0012 0.28337,0.01947 0.37878,0.06215 0.0975,0.04056 0.17333,0.09165 0.22754,0.153247 0.0542,0.05953 0.0919,0.122264 0.11311,0.188251 0.0233,0.06596 0.0402,0.122687 0.0509,0.170154 0.0367,-0.06437 0.0858,-0.130916 0.1473,-0.199602 0.0635,-0.06871 0.14054,-0.131339 0.23106,-0.187854 0.0926,-0.05861 0.20071,-0.105966 0.32446,-0.142055 0.12372,-0.03818 0.26527,-0.05789 0.42428,-0.05913 0.28522,-0.0022 0.49663,0.06948 0.63421,0.215185 0.13758,0.143616 0.2077,0.376661 0.21008,0.699109 l 0.0106,1.354905 c 5.3e-4,0.0372 -0.003,0.06617 -0.0116,0.08692 -0.008,0.02074 -0.0183,0.03736 -0.0307,0.04985 -0.01,0.01042 -0.0225,0.01775 -0.037,0.02199 -0.0143,0.0022 -0.0278,0.0033 -0.0402,0.0034 -0.0164,1.32e-4 -0.032,-7.67e-4 -0.0466,-0.0027 -0.0143,-0.002 -0.0278,-0.008 -0.0405,-0.01828 -0.0124,-0.01024 -0.0228,-0.02567 -0.0312,-0.04628 -0.006,-0.02267 -0.01,-0.05366 -0.0101,-0.09295 z m 2.61117,-0.758375 c -0.19209,0.0015 -0.36248,0.01937 -0.51117,0.05361 -0.14843,0.03424 -0.27517,0.08895 -0.37994,0.1642 -0.10293,0.07316 -0.18283,0.167825 -0.23972,0.28403 -0.0569,0.116205 -0.0889,0.258048 -0.096,0.425556 l 2.33786,-0.01828 -0.001,-0.167428 c -7.9e-4,-0.103346 -0.0212,-0.200342 -0.0611,-0.290989 -0.0378,-0.09067 -0.10054,-0.169756 -0.18785,-0.237278 -0.0873,-0.06755 -0.20162,-0.120385 -0.34237,-0.158565 -0.14076,-0.03818 -0.31354,-0.05646 -0.51832,-0.05485 z m -0.14473,2.103385 c 0.19633,-0.0015 0.36778,-0.01529 0.51435,-0.04122 0.14658,-0.02596 0.27253,-0.05691 0.37757,-0.0929 0.1053,-0.03596 0.19076,-0.07279 0.25664,-0.110516 0.0677,-0.03776 0.12039,-0.06916 0.15716,-0.09425 0.0124,-0.0042 0.0206,-0.0064 0.0249,-0.0064 0.0228,-1.85e-4 0.0434,0.01103 0.0622,0.03363 0.0209,0.0205 0.0315,0.04315 0.0317,0.06794 0,0.02275 -0.01,0.04143 -0.0307,0.05607 -0.0185,0.01873 -0.0585,0.048 -0.12012,0.08776 -0.0598,0.03974 -0.14631,0.08072 -0.25955,0.122951 -0.11351,0.04016 -0.25374,0.07641 -0.42096,0.108718 -0.16721,0.03231 -0.36538,0.04937 -0.59478,0.05117 -0.23998,0.0019 -0.4437,-0.02651 -0.61145,-0.08514 -0.16801,-0.05863 -0.30507,-0.141287 -0.41143,-0.247941 -0.1061,-0.106653 -0.18362,-0.235241 -0.2323,-0.385762 -0.049,-0.150522 -0.0738,-0.315701 -0.0754,-0.495512 -0.002,-0.239792 0.0349,-0.439552 0.11007,-0.599308 0.0754,-0.159755 0.17859,-0.287681 0.31035,-0.383804 0.13362,-0.09821 0.28999,-0.16764 0.46964,-0.208333 0.1815,-0.04069 0.37676,-0.06186 0.58552,-0.06347 0.42995,-0.0034 0.75195,0.07678 0.96626,0.24048 0.21616,0.161608 0.32544,0.395393 0.32782,0.701305 2.6e-4,0.02892 -0.002,0.06099 -0.006,0.09615 -0.004,0.03519 -0.01,0.06932 -0.0177,0.102473 -0.006,0.03104 -0.014,0.058 -0.0241,0.0808 -0.008,0.02074 -0.0164,0.03114 -0.0246,0.03119 l -0.91149,0.0071 -1.53803,-0.019 c 0.006,0.19222 0.0315,0.355309 0.078,0.489321 0.0487,0.131894 0.11774,0.239897 0.20717,0.323929 0.0918,0.08197 0.20373,0.142081 0.33629,0.180313 0.13255,0.03617 0.28681,0.05358 0.46249,0.0522 z m 5.09694,-0.111178 c 2.6e-4,0.02686 -0.002,0.05374 -0.006,0.08065 -0.004,0.02691 -0.0111,0.05072 -0.0212,0.07149 -0.008,0.02072 -0.0204,0.03839 -0.0368,0.053 -0.0164,0.01254 -0.037,0.01889 -0.0619,0.01908 -0.031,2.64e-4 -0.0548,-0.0058 -0.0714,-0.01805 -0.0146,-0.01434 -0.0262,-0.03183 -0.0347,-0.05244 -0.008,-0.02059 -0.0138,-0.04432 -0.0159,-0.07117 -2.7e-4,-0.02688 -5.3e-4,-0.05376 -7.9e-4,-0.08062 l -0.008,-1.072779 c -0.001,-0.161211 -0.0148,-0.301678 -0.0407,-0.421376 -0.0236,-0.119697 -0.0709,-0.218546 -0.14182,-0.296545 -0.0688,-0.08009 -0.16537,-0.139276 -0.28972,-0.177588 -0.12224,-0.03831 -0.28258,-0.0567 -0.48101,-0.05514 -0.12198,9.52e-4 -0.25109,0.0123 -0.38735,0.03402 -0.13626,0.01968 -0.26617,0.0548 -0.38973,0.105384 -0.12383,0.0485 -0.23284,0.113453 -0.32729,0.194812 -0.0945,0.08133 -0.15981,0.183145 -0.19606,0.305383 l 0.0111,1.401418 c 0,0.02688 -7.9e-4,0.05376 -0.003,0.08064 -0.002,0.02688 -0.007,0.05069 -0.0148,0.07144 -0.008,0.02074 -0.0204,0.03839 -0.0368,0.053 -0.0145,0.01251 -0.0341,0.01886 -0.0587,0.01908 -0.0291,2.12e-4 -0.0529,-0.0058 -0.0714,-0.01805 -0.0167,-0.01434 -0.0304,-0.03183 -0.0408,-0.05241 -0.008,-0.02059 -0.0148,-0.04432 -0.0193,-0.07115 -0.002,-0.02685 -0.003,-0.05374 -0.004,-0.08059 l -0.0156,-2.009114 c -2.6e-4,-0.03516 0.007,-0.06726 0.0209,-0.09631 0.0143,-0.03111 0.0503,-0.04688 0.10821,-0.04733 0.0516,-4.23e-4 0.0839,0.01381 0.0963,0.04265 0.0148,0.02675 0.0222,0.05977 0.0225,0.09903 l 0.003,0.390657 c 0.0569,-0.132742 0.13653,-0.238787 0.23945,-0.318135 0.10266,-0.08141 0.21484,-0.14224 0.33655,-0.182457 0.12356,-0.04233 0.24845,-0.07017 0.37439,-0.08355 0.12806,-0.01342 0.24474,-0.02053 0.35031,-0.02135 0.22304,-0.0017 0.41037,0.01643 0.56144,0.05453 0.15346,0.03601 0.27676,0.09808 0.37068,0.186241 0.0958,0.08813 0.16378,0.205422 0.20426,0.351869 0.0423,0.144383 0.0646,0.324035 0.0661,0.539009 z m 2.30584,-2.123414 c 0.0312,-2.38e-4 0.054,0.0079 0.0685,0.02426 0.0167,0.01434 0.0251,0.03082 0.0251,0.04942 2.7e-4,0.0186 -0.008,0.03622 -0.0243,0.05289 -0.0143,0.01458 -0.037,0.02201 -0.068,0.02225 l -1.02949,0.008 0.0103,1.314608 c 0.001,0.150892 0.0177,0.272733 0.0495,0.365496 0.0317,0.09276 0.0735,0.164782 0.12568,0.216059 0.054,0.05125 0.11641,0.08591 0.18679,0.103981 0.0725,0.01595 0.14896,0.02363 0.22966,0.02299 0.0992,-7.67e-4 0.19632,-0.0191 0.29104,-0.05498 0.0947,-0.03588 0.204,-0.08739 0.32756,-0.15449 0.0246,-0.0126 0.0484,-0.019 0.0712,-0.01918 0.0267,-1.85e-4 0.0474,0.0079 0.0622,0.02434 0.0167,0.01434 0.0249,0.03286 0.0251,0.05562 2.6e-4,0.04133 -0.0222,0.07459 -0.0675,0.09975 -0.0865,0.04821 -0.16352,0.08705 -0.23151,0.116523 -0.0659,0.02945 -0.1278,0.05268 -0.18548,0.06967 -0.0558,0.01699 -0.11059,0.02879 -0.16404,0.0354 -0.0537,0.0066 -0.11059,0.01016 -0.17065,0.01064 -0.11166,8.73e-4 -0.21617,-0.01381 -0.31354,-0.04405 -0.0952,-0.03027 -0.17938,-0.07922 -0.25214,-0.14687 -0.0709,-0.06972 -0.12753,-0.161264 -0.1696,-0.274638 -0.0402,-0.115437 -0.0609,-0.256884 -0.0622,-0.424312 l -0.0103,-1.314609 -0.27279,0.0021 c -0.0291,2.38e-4 -0.0508,-0.0068 -0.0653,-0.02119 -0.0146,-0.01643 -0.022,-0.03392 -0.0222,-0.05255 0,-0.0186 0.007,-0.03519 0.0214,-0.04977 0.0143,-0.01664 0.036,-0.02508 0.0648,-0.02532 l 0.27279,-0.0021 -0.006,-0.772028 c -5.3e-4,-0.06615 0.0124,-0.10758 0.0392,-0.124328 0.0267,-0.01881 0.0545,-0.02834 0.0836,-0.02858 0.0352,-2.64e-4 0.064,0.0088 0.0871,0.02723 0.0249,0.01635 0.0376,0.0576 0.0381,0.123745 l 0.006,0.772002 z"
       fill="#219653"
       id="path231"
       style="stroke-width:0.264583" />
    <path
       d="m 139.18247,75.05044 c 0,0.0703 -0.0124,0.136446 -0.0372,0.198438 -0.0248,0.06202 -0.0476,0.1261 -0.0682,0.192246 -0.0165,0.05789 -0.0289,0.10541 -0.0372,0.142637 -0.004,0.0372 -0.0124,0.07027 -0.0248,0.09922 -0.0124,0.02479 -0.0331,0.04961 -0.062,0.0744 -0.0248,0.02066 -0.0661,0.04548 -0.12404,0.07443 -0.12401,0.06615 -0.2563,0.134355 -0.39687,0.204629 -0.13642,0.06614 -0.27493,0.09922 -0.41548,0.09922 -0.11988,0 -0.23357,-0.02688 -0.34107,-0.08062 -0.10335,-0.05786 -0.2005,-0.119883 -0.29144,-0.186029 -0.0868,-0.07027 -0.16743,-0.134355 -0.24186,-0.192246 -0.0703,-0.05786 -0.13022,-0.08681 -0.17983,-0.08681 -0.0537,0 -0.10129,0.01447 -0.14261,0.04342 -0.0372,0.02892 -0.0765,0.05993 -0.11785,0.093 -0.0372,0.03307 -0.0806,0.06408 -0.1302,0.09303 -0.0455,0.02895 -0.10337,0.04342 -0.17365,0.04342 -0.0579,0 -0.11781,0.01032 -0.17983,0.03098 -0.062,0.02069 -0.12401,0.04548 -0.18603,0.07443 -0.062,0.02479 -0.1261,0.05167 -0.19225,0.08062 -0.062,0.02479 -0.11988,0.04548 -0.17362,0.06199 -0.18603,0.04964 -0.37414,0.07855 -0.5643,0.08684 -0.18606,0.0083 -0.37415,0.01238 -0.56431,0.01238 -0.0496,0 -0.12609,-0.0021 -0.22945,-0.0062 -0.10335,0 -0.20877,-0.01032 -0.31626,-0.03101 -0.10335,-0.01654 -0.19637,-0.04546 -0.27905,-0.08681 -0.0786,-0.04135 -0.11782,-0.09922 -0.11782,-0.173646 0,-0.01651 0.002,-0.03098 0.006,-0.04339 -0.0289,0.03307 -0.062,0.05996 -0.0992,0.08062 -0.0372,0.02066 -0.0785,0.03101 -0.12403,0.03101 -0.0661,0 -0.14676,-0.04548 -0.24184,-0.136446 -0.0951,-0.09094 -0.18603,-0.196373 -0.27285,-0.316256 -0.0868,-0.119883 -0.16123,-0.237702 -0.22324,-0.353457 -0.062,-0.119883 -0.093,-0.208783 -0.093,-0.266647 0,-0.04548 0.0124,-0.08684 0.0372,-0.124037 0.0289,-0.0372 0.0434,-0.07853 0.0434,-0.12401 0,-0.05789 -0.008,-0.111628 -0.0248,-0.161237 -0.0124,-0.05374 -0.0186,-0.109564 -0.0186,-0.167428 0,-0.07443 0.0145,-0.152956 0.0434,-0.235638 0.0289,-0.08684 0.0641,-0.171583 0.10542,-0.254265 0.0413,-0.08681 0.0847,-0.169492 0.13023,-0.248047 0.0455,-0.08268 0.0868,-0.159147 0.12402,-0.229446 0.0413,-0.08268 0.0992,-0.148829 0.17364,-0.198438 0.0744,-0.04961 0.15296,-0.093 0.23564,-0.130228 0.0827,-0.0372 0.16536,-0.0744 0.24805,-0.111601 0.0827,-0.0372 0.15503,-0.08684 0.21704,-0.148828 0.062,0.07027 0.14263,0.10541 0.24184,0.10541 0.10336,0 0.20464,-0.01447 0.30386,-0.04342 0.0992,-0.03307 0.20051,-0.04958 0.30386,-0.04958 0.0827,0 0.16123,0.0083 0.23563,0.02479 0.0786,0.01654 0.15918,0.02479 0.24186,0.02479 0.0909,0 0.15708,-0.01032 0.19844,-0.03098 0.0455,-0.02482 0.10128,-0.06615 0.16742,-0.124037 0.0661,-0.05786 0.14883,-0.101282 0.24805,-0.130228 0.10335,-0.03307 0.20878,-0.05786 0.31626,-0.0744 0.11163,-0.02066 0.22119,-0.04136 0.32866,-0.06202 0.11163,-0.02066 0.21085,-0.04961 0.29766,-0.08681 0.0868,-0.04135 0.15711,-0.09509 0.21085,-0.161237 0.0537,-0.07027 0.0806,-0.165364 0.0806,-0.285247 0,-0.132292 -0.0393,-0.270801 -0.11781,-0.415475 -0.0744,-0.148828 -0.17159,-0.28321 -0.29147,-0.403093 -0.11988,-0.12401 -0.25217,-0.225293 -0.39687,-0.303847 -0.1447,-0.07855 -0.28319,-0.117819 -0.41548,-0.117819 -0.0165,0 -0.0331,0.0021 -0.0496,0.0062 -0.0165,0.0041 -0.031,0.0062 -0.0434,0.0062 -0.0992,0.01656 -0.21084,0.02895 -0.33485,0.03723 -0.12404,0.0041 -0.2398,0.02273 -0.34727,0.0558 -0.1075,0.02895 -0.19844,0.08062 -0.27286,0.155046 -0.0744,0.07027 -0.11161,0.175683 -0.11161,0.316256 0,0.08268 0.006,0.165365 0.0186,0.248047 0.0165,0.07853 0.0248,0.159147 0.0248,0.241829 0,0.124037 -0.031,0.227383 -0.093,0.310065 -0.0579,0.08268 -0.13436,0.148828 -0.22944,0.198438 -0.091,0.04961 -0.19224,0.08475 -0.30386,0.10541 -0.11162,0.01654 -0.21911,0.02482 -0.32246,0.02482 -0.12403,0 -0.23151,-0.01654 -0.32246,-0.04961 -0.0909,-0.03307 -0.16537,-0.109563 -0.22325,-0.229445 -0.0455,-0.08681 -0.0951,-0.179838 -0.14882,-0.279056 -0.0496,-0.103347 -0.0744,-0.206693 -0.0744,-0.310066 0,-0.111601 0.0186,-0.214974 0.0558,-0.310038 0.0413,-0.09922 0.0868,-0.19431 0.13643,-0.285274 0.0496,-0.09506 0.0971,-0.188092 0.14262,-0.27903 0.0496,-0.09509 0.0848,-0.196373 0.10542,-0.303874 0.0289,-0.01654 0.0682,-0.03307 0.11783,-0.04961 0.0537,-0.01654 0.10955,-0.03307 0.16743,-0.04961 0.062,-0.01654 0.11989,-0.03101 0.17363,-0.04342 0.0579,-0.01651 0.10542,-0.03098 0.14263,-0.04339 0.0992,-0.02895 0.1943,-0.06202 0.28525,-0.09922 0.0951,-0.04134 0.19017,-0.07855 0.28526,-0.111622 0.0992,-0.03307 0.19637,-0.06201 0.29146,-0.08682 0.0992,-0.02481 0.2005,-0.03928 0.30385,-0.04341 l 0.19225,-0.0062 c 0.17774,0 0.35964,0.01654 0.5457,0.04961 0.18603,0.02894 0.36793,0.07648 0.5457,0.142626 0.17775,0.06615 0.34518,0.148842 0.50229,0.24806 0.16123,0.09507 0.30384,0.208757 0.42788,0.341048 0.0909,0.09922 0.16537,0.217038 0.22323,0.353484 0.062,0.132291 0.10956,0.272838 0.14264,0.421666 0.0372,0.148828 0.062,0.29972 0.0744,0.452676 0.0165,0.148828 0.0248,0.287337 0.0248,0.415501 0,0.17362 -0.006,0.345176 -0.0186,0.514694 -0.008,0.165365 -0.0124,0.334857 -0.0124,0.508477 0,0.165364 0.008,0.330729 0.0248,0.496093 0.0207,0.161237 0.0434,0.324538 0.0682,0.489903 0.0248,0.161237 0.0455,0.324538 0.062,0.489902 0.0207,0.161211 0.031,0.322448 0.031,0.483685 0.008,0.09922 0.0207,0.161237 0.0372,0.186029 0.0207,0.02066 0.0413,0.03101 0.062,0.03101 0.091,0 0.16331,-0.02688 0.21704,-0.08062 0.0579,-0.05786 0.10957,-0.119883 0.15505,-0.186029 0.0455,-0.07027 0.0951,-0.134355 0.14883,-0.192246 0.0537,-0.05786 0.12194,-0.08681 0.20462,-0.08681 0.0372,0 0.0744,0.0021 0.11163,0.0062 0.0413,0.0041 0.0786,0.01447 0.11163,0.03101 0.0331,0.01241 0.0599,0.03307 0.0806,0.06202 0.0207,0.02482 0.031,0.05996 0.031,0.10541 z m -2.04018,-1.544082 c 0,-0.02479 -0.002,-0.06821 -0.006,-0.130227 0,-0.06202 -0.004,-0.124011 -0.0124,-0.186029 -0.008,-0.06615 -0.0227,-0.124037 -0.0434,-0.173646 -0.0165,-0.04961 -0.0434,-0.0744 -0.0806,-0.0744 -0.008,0 -0.0186,0.0041 -0.031,0.01241 -0.0124,0.0041 -0.0228,0.0062 -0.031,0.0062 -0.15711,0.08681 -0.29147,0.159173 -0.4031,0.217038 -0.1116,0.05374 -0.22322,0.09922 -0.33485,0.136419 -0.10748,0.03307 -0.22323,0.05583 -0.34727,0.06824 -0.12401,0.01238 -0.27905,0.0186 -0.46508,0.0186 -0.0248,0 -0.093,0.01032 -0.20463,0.03098 -0.11163,0.02069 -0.2336,0.04548 -0.36589,0.07443 -0.1323,0.02479 -0.25631,0.05168 -0.37206,0.08062 -0.11576,0.02479 -0.1881,0.04133 -0.21704,0.04961 -0.0537,0.02066 -0.093,0.04133 -0.11783,0.06202 -0.0207,0.02066 -0.0372,0.04339 -0.0496,0.06821 -0.0124,0.02479 -0.0248,0.05167 -0.0372,0.08062 -0.0124,0.02479 -0.0351,0.05167 -0.0682,0.08059 -0.0413,0.03307 -0.0868,0.05996 -0.13643,0.08062 -0.0455,0.02069 -0.0889,0.05167 -0.13023,0.09303 -0.062,0.06202 -0.11988,0.144701 -0.17363,0.248047 -0.0537,0.09922 -0.0806,0.19431 -0.0806,0.285248 0,0.111627 0.0289,0.210846 0.0868,0.297656 0.0579,0.08681 0.13436,0.161237 0.22945,0.223255 0.0951,0.06199 0.20257,0.115755 0.32246,0.161211 0.11989,0.04548 0.23978,0.08062 0.35967,0.105436 0.12402,0.02479 0.24185,0.04342 0.35347,0.0558 0.11576,0.01241 0.21498,0.0186 0.29766,0.0186 0.0992,0 0.21704,-0.0062 0.35346,-0.0186 0.13641,-0.01654 0.27283,-0.03926 0.40928,-0.06821 0.13642,-0.03307 0.26458,-0.07646 0.38447,-0.130228 0.11988,-0.05374 0.21497,-0.121946 0.28524,-0.204629 0.0289,-0.03307 0.0496,-0.06202 0.062,-0.08681 0.0124,-0.02895 0.0248,-0.05583 0.0372,-0.08062 0.0165,-0.02895 0.0331,-0.05789 0.0496,-0.08684 0.0207,-0.02892 0.0517,-0.05993 0.093,-0.093 0.0951,-0.07855 0.16743,-0.165364 0.21703,-0.260456 0.0537,-0.09509 0.093,-0.19431 0.11782,-0.297656 0.0248,-0.103346 0.0393,-0.210846 0.0434,-0.322448 0.004,-0.111627 0.006,-0.225319 0.006,-0.341074 z m 8.98261,2.306823 c 0,0.144701 -0.0496,0.258392 -0.14883,0.341075 -0.0951,0.08681 -0.21085,0.150891 -0.34726,0.192246 -0.13642,0.04548 -0.27906,0.0744 -0.42789,0.08681 -0.1447,0.01241 -0.26871,0.0186 -0.37206,0.0186 -0.13644,0 -0.25011,-0.01241 -0.34107,-0.0372 -0.0868,-0.02482 -0.1633,-0.05167 -0.22945,-0.08062 -0.0661,-0.02482 -0.12401,-0.04961 -0.17362,-0.0744 -0.0496,-0.02482 -0.10128,-0.03723 -0.15504,-0.03723 -0.0703,0 -0.14055,0.01241 -0.21082,0.03723 -0.0661,0.02479 -0.13438,0.0372 -0.20466,0.0372 -0.0496,0 -0.0909,-0.0083 -0.12401,-0.02482 -0.0289,-0.01654 -0.0538,-0.0372 -0.0744,-0.06202 -0.0207,-0.02066 -0.0413,-0.03926 -0.062,-0.0558 -0.0165,-0.01654 -0.0372,-0.02479 -0.062,-0.02479 -0.029,0 -0.0517,0.01032 -0.0682,0.03101 -0.0165,0.02479 -0.0352,0.05167 -0.0558,0.08059 -0.0207,0.02894 -0.0517,0.05376 -0.093,0.07443 -0.0372,0.02479 -0.093,0.0372 -0.16745,0.0372 -0.0868,0 -0.17156,-0.01035 -0.25424,-0.03101 -0.0827,-0.01654 -0.16743,-0.02479 -0.25424,-0.02479 -0.0868,0 -0.17364,0.01447 -0.26045,0.04339 -0.0827,0.03307 -0.16124,0.04961 -0.23564,0.04961 -0.0331,0 -0.0579,-0.01238 -0.0744,-0.0372 -0.0165,-0.02066 -0.0351,-0.03101 -0.0558,-0.03101 -0.0703,0 -0.1447,0.01654 -0.22326,0.04961 -0.0744,0.03307 -0.15089,0.04961 -0.22944,0.04961 -0.0413,0 -0.0827,-0.0062 -0.12401,-0.0186 -0.0372,-0.0083 -0.0765,-0.01241 -0.11782,-0.01241 -0.0703,0 -0.14057,0.01654 -0.21085,0.04961 -0.0703,0.03307 -0.15708,0.04961 -0.26045,0.04961 -0.0372,0 -0.11989,-0.0062 -0.24805,-0.0186 -0.12401,-0.0083 -0.25217,-0.02273 -0.38446,-0.04339 -0.13229,-0.02069 -0.25218,-0.04754 -0.35968,-0.08062 -0.10334,-0.02895 -0.15502,-0.06202 -0.15502,-0.09922 0,-0.1075 0.0186,-0.214974 0.0558,-0.322474 0.0414,-0.107474 0.062,-0.210847 0.062,-0.310065 v -0.01238 c -0.0537,0 -0.0847,-0.02894 -0.093,-0.08684 0.008,-0.01651 0.0207,-0.02892 0.0372,-0.0372 0.0207,-0.01238 0.0413,-0.02066 0.062,-0.02479 0.0207,-0.0083 0.0393,-0.0186 0.0558,-0.03101 0.0165,-0.01241 0.0248,-0.03101 0.0248,-0.0558 v -0.02482 c 0.16537,0.01654 0.32661,0.02688 0.48371,0.03101 0.16122,0.0041 0.32864,0.0062 0.50229,0.0062 0.16124,0 0.33898,-0.0041 0.53329,-0.01238 0.19844,-0.01241 0.38034,-0.04342 0.54571,-0.09303 0.16949,-0.04961 0.31006,-0.124037 0.42169,-0.223256 0.11575,-0.103346 0.17362,-0.245956 0.17362,-0.427884 v -0.04339 -0.09922 c -0.0207,-0.454766 -0.0434,-0.90125 -0.0682,-1.339453 -0.0207,-0.442357 -0.031,-0.890905 -0.031,-1.345644 0,-0.11991 -0.0103,-0.235665 -0.031,-0.347292 -0.0165,-0.115729 -0.0248,-0.231511 -0.0248,-0.34724 0,-0.1447 0.0248,-0.289401 0.0744,-0.434101 0.0538,-0.144701 0.13644,-0.266648 0.24805,-0.365866 -0.004,-0.02479 -0.0145,-0.04133 -0.031,-0.04961 -0.0165,-0.01241 -0.0372,-0.02066 -0.062,-0.02479 -0.0248,-0.0041 -0.0496,-0.0083 -0.0744,-0.01241 -0.0207,-0.0041 -0.0393,-0.01035 -0.0558,-0.0186 -0.0248,-0.01241 -0.0414,-0.04135 -0.0496,-0.08681 -0.008,-0.04548 -0.0165,-0.0951 -0.0248,-0.148842 -0.004,-0.05375 -0.0103,-0.10542 -0.0186,-0.15503 -0.004,-0.05374 -0.0165,-0.09508 -0.0372,-0.124023 0.0124,-0.119888 0.0331,-0.23771 0.062,-0.353467 0.0289,-0.115756 0.0434,-0.233577 0.0434,-0.353465 0,-0.08682 -0.0124,-0.15503 -0.0372,-0.20464 -0.0207,-0.04961 -0.0455,-0.09095 -0.0744,-0.124023 -0.029,-0.03307 -0.0558,-0.06201 -0.0806,-0.08682 -0.0207,-0.02894 -0.031,-0.06408 -0.031,-0.105421 0,-0.03307 0.0103,-0.06408 0.031,-0.09302 l -0.0496,-0.0062 c -0.0414,0 -0.0724,0.01033 -0.093,0.031 -0.0207,0.02067 -0.0413,0.04341 -0.062,0.06822 -0.0165,0.02481 -0.0351,0.04754 -0.0558,0.06821 -0.0207,0.02067 -0.0496,0.03101 -0.0868,0.03101 -0.0289,0 -0.062,-0.0062 -0.0992,-0.01861 -0.0703,0.02067 -0.13644,0.03101 -0.19844,0.03101 -0.1447,0 -0.2894,-0.0186 -0.4341,-0.05581 -0.14054,-0.04134 -0.28318,-0.06201 -0.42785,-0.06201 -0.0786,0 -0.15505,0.0041 -0.22945,0.0124 -0.0744,0.0041 -0.14883,0.0062 -0.22326,0.0062 -0.10747,0 -0.21497,-0.0124 -0.32244,-0.03721 -0.1075,-0.0248 -0.20259,-0.07855 -0.28527,-0.161231 v -0.07442 c 0,-0.219106 0.0724,-0.384471 0.21706,-0.496093 0.14883,-0.111621 0.32864,-0.167431 0.53948,-0.167431 0.14471,0 0.28734,0.0186 0.42789,0.05581 0.14057,0.03721 0.28318,0.05581 0.42788,0.05581 0.0786,0 0.16124,-0.0083 0.24805,-0.02481 0.0868,-0.01654 0.17571,-0.03514 0.26665,-0.05581 0.091,-0.02067 0.1819,-0.03927 0.27286,-0.05581 0.0951,-0.01654 0.18809,-0.02481 0.27903,-0.02481 0.14057,0 0.27287,0.03101 0.39688,0.09302 0.12403,0.05788 0.24804,0.113688 0.37208,0.16743 l -0.006,0.04961 c 0,0.03721 0.008,0.07235 0.0248,0.10542 0.0207,0.02894 0.0434,0.05995 0.0682,0.09302 0.0248,0.02894 0.0455,0.05995 0.062,0.09302 0.0207,0.02894 0.031,0.06201 0.031,0.09922 0,0.03721 -0.006,0.07441 -0.0186,0.111619 -0.008,0.03307 -0.0124,0.06821 -0.0124,0.105421 0,0.09095 0.0165,0.177768 0.0496,0.26045 0.0372,0.08268 0.0558,0.171564 0.0558,0.26665 0,0.09922 -0.0124,0.196371 -0.0372,0.291455 -0.0207,0.09508 -0.031,0.192235 -0.031,0.291454 0,0.119891 0.0145,0.239779 0.0434,0.359669 0.029,0.119888 0.0434,0.239768 0.0434,0.359678 0,0.09922 -0.0165,0.196347 -0.0496,0.291438 -0.0289,0.09509 -0.0434,0.190183 -0.0434,0.285274 0,0.07027 0.008,0.140547 0.0248,0.21082 0.0207,0.06615 0.0434,0.132292 0.0682,0.198437 0.0248,0.06615 0.0455,0.134356 0.062,0.204656 0.0207,0.06615 0.031,0.136419 0.031,0.21082 v 0.124036 c 0,0.06615 -0.006,0.130228 -0.0186,0.19222 -0.008,0.05789 -0.0351,0.113691 -0.0806,0.167455 0.0207,0.07853 0.0414,0.163274 0.062,0.254238 0.0248,0.09096 0.0372,0.177773 0.0372,0.260456 0,0.04133 -0.004,0.08681 -0.0124,0.136419 -0.004,0.04548 -0.0145,0.09303 -0.031,0.142637 -0.0124,0.04546 -0.031,0.08887 -0.0558,0.130201 -0.0248,0.03723 -0.0537,0.06824 -0.0868,0.09303 0.0537,0.15711 0.0889,0.316257 0.10541,0.477494 0.0165,0.161237 0.0289,0.322448 0.0372,0.483685 0.004,0.04961 0.0124,0.113691 0.0248,0.192246 0.0124,0.07855 0.0248,0.157083 0.0372,0.235638 0.0124,0.07443 0.0228,0.1447 0.031,0.210846 0.0124,0.06202 0.0186,0.10541 0.0186,0.130228 0,0.07027 -0.0124,0.138483 -0.0372,0.204629 -0.0248,0.06615 -0.0372,0.134355 -0.0372,0.204655 0,0.05374 0.0124,0.111601 0.0372,0.17362 0.0248,0.05789 0.0703,0.08681 0.13642,0.08681 0.0496,0 0.091,-0.01032 0.12404,-0.03101 0.0372,-0.02479 0.0765,-0.04961 0.11781,-0.0744 0.0413,-0.02894 0.0889,-0.05374 0.14262,-0.07443 0.0579,-0.02479 0.13438,-0.0372 0.22944,-0.0372 0.1075,0 0.20878,0.01447 0.30388,0.04342 0.0951,0.02892 0.19637,0.04339 0.30384,0.04339 0.0786,0 0.15711,-0.0062 0.23564,-0.0186 0.0827,-0.01654 0.16124,-0.03307 0.23567,-0.04961 0.0785,-0.02066 0.15708,-0.03926 0.23563,-0.0558 0.0786,-0.01654 0.15915,-0.02482 0.24183,-0.02482 0.16537,0 0.30388,0.04755 0.4155,0.142637 0.11576,0.09509 0.17362,0.235637 0.17362,0.421666 z m -3.55947,-7.720446 c -0.0165,-0.01654 -0.0372,-0.03307 -0.062,-0.04961 -0.0207,-0.01654 -0.0455,-0.0248 -0.0744,-0.0248 -0.0207,0 -0.0393,0.01034 -0.0558,0.03101 -0.0124,0.01654 -0.0186,0.03514 -0.0186,0.05581 l 0.031,0.07441 c 0.0165,0.0083 0.0289,0.0124 0.0372,0.0124 0.0331,0 0.06,-0.01033 0.0806,-0.031 0.0248,-0.02481 0.0455,-0.04754 0.062,-0.06821 z m 0.37206,1.723927 c 0,-0.03307 -0.0103,-0.06615 -0.031,-0.09922 -0.0165,-0.03721 -0.0455,-0.05581 -0.0868,-0.05581 -0.0124,0 -0.0269,0.0021 -0.0434,0.0062 -0.0124,0.0041 -0.0228,0.0083 -0.031,0.0124 v 0.266652 c 0.0331,0.01654 0.0579,0.0248 0.0744,0.0248 0.0413,0 0.0703,-0.01654 0.0868,-0.04961 0.0207,-0.03721 0.031,-0.07234 0.031,-0.105418 z m 7.48813,-1.463477 c 0,0.119888 -0.0207,0.243912 -0.062,0.372071 -0.0372,0.124023 -0.093,0.239778 -0.16743,0.347265 -0.0744,0.103352 -0.16536,0.19017 -0.27284,0.260448 -0.10337,0.06615 -0.21912,0.09922 -0.34726,0.09922 -0.0868,0 -0.19431,-0.0124 -0.32248,-0.03721 -0.12816,-0.02894 -0.25217,-0.06821 -0.37205,-0.117824 -0.11576,-0.05374 -0.21707,-0.121954 -0.30388,-0.204637 -0.0827,-0.08268 -0.12401,-0.179834 -0.12401,-0.291457 0,-0.09922 0.0103,-0.200504 0.031,-0.303855 0.0248,-0.107487 0.0393,-0.214974 0.0434,-0.322461 0.0413,-0.02067 0.0827,-0.05788 0.12404,-0.111623 0.0413,-0.05374 0.0806,-0.107487 0.11782,-0.161229 0.0413,-0.05788 0.0806,-0.109556 0.11782,-0.15503 0.0413,-0.04547 0.0827,-0.07028 0.12403,-0.07441 l -0.031,0.0124 c 0.0579,-0.0248 0.11782,-0.04548 0.17982,-0.06201 0.0661,-0.01654 0.13229,-0.0248 0.19843,-0.0248 0.0868,0 0.19019,0.02274 0.31007,0.06821 0.12403,0.04134 0.24185,0.09715 0.35348,0.167433 0.1116,0.07028 0.20669,0.152961 0.28525,0.248047 0.0786,0.09508 0.11782,0.192236 0.11782,0.291454 z m 3.00136,7.546832 c 0,0.07027 -0.0144,0.13642 -0.0434,0.198438 -0.0248,0.06202 -0.062,0.115755 -0.11163,0.161237 -0.0455,0.04958 -0.0992,0.08887 -0.16124,0.117819 -0.062,0.02892 -0.1302,0.04339 -0.20463,0.04339 -0.029,0 -0.0476,-0.0041 -0.0558,-0.01241 -0.008,-0.0083 -0.0228,-0.02273 -0.0434,-0.04339 -0.0579,-0.06202 -0.12816,-0.09922 -0.21084,-0.111628 -0.0827,-0.0083 -0.1695,-0.0186 -0.26046,-0.03101 -0.0868,-0.0083 -0.17156,-0.03101 -0.25424,-0.06821 -0.0786,-0.03307 -0.14263,-0.103346 -0.19222,-0.210846 -0.0331,-0.07027 -0.0682,-0.115755 -0.10543,-0.136419 -0.0372,-0.02066 -0.0951,-0.03101 -0.17362,-0.03101 -0.1819,0 -0.35555,0.02894 -0.52092,0.08684 -0.16536,0.05786 -0.32866,0.12401 -0.48987,0.198437 -0.16124,0.07027 -0.3266,0.134356 -0.4961,0.19222 -0.16536,0.05789 -0.33694,0.08681 -0.51472,0.08681 -0.0992,0 -0.19843,-0.01032 -0.29765,-0.03101 -0.0951,-0.01651 -0.18809,-0.04546 -0.27903,-0.08681 -0.0207,0.02066 -0.0455,0.03514 -0.0744,0.04342 -0.0248,0.0083 -0.0537,0.01241 -0.0868,0.01241 -0.0289,0 -0.0579,-0.0021 -0.0868,-0.0062 -0.0248,-0.0041 -0.0475,-0.0062 -0.0682,-0.0062 -0.004,0 -0.0269,0.0062 -0.0682,0.0186 -0.0413,0.01654 -0.0662,0.02688 -0.0744,0.03101 l 0.0372,0.06202 c -0.0248,0.0372 -0.0806,0.07234 -0.16743,0.10541 -0.0868,0.0372 -0.1819,0.06821 -0.28525,0.09303 -0.0992,0.02479 -0.19637,0.04546 -0.29146,0.06199 -0.0951,0.01654 -0.16743,0.02482 -0.21704,0.02482 -0.13229,0 -0.24186,-0.02275 -0.32867,-0.06821 -0.0827,-0.04135 -0.16536,-0.115755 -0.24804,-0.223255 -0.0289,-0.04133 -0.0661,-0.08268 -0.11163,-0.124011 -0.0413,-0.04135 -0.0827,-0.08268 -0.12401,-0.124036 -0.0372,-0.04548 -0.0703,-0.093 -0.0992,-0.142611 -0.0248,-0.04961 -0.0372,-0.101309 -0.0372,-0.155046 0,-0.06199 0.0331,-0.113691 0.0992,-0.155019 0.0661,-0.04135 0.1447,-0.07443 0.23566,-0.09922 0.0909,-0.02895 0.18191,-0.04755 0.27284,-0.05583 0.091,-0.01238 0.16124,-0.0186 0.21085,-0.0186 0.0992,0 0.19844,0.01447 0.29766,0.04342 0.0992,0.02482 0.19843,0.0372 0.29765,0.0372 0.091,0 0.17778,-0.01238 0.26046,-0.0372 0.0827,-0.02482 0.16949,-0.0372 0.26045,-0.0372 0.0785,0 0.15502,0.0062 0.22942,0.0186 0.0786,0.0083 0.15711,0.01241 0.23567,0.01241 0.0992,0 0.19428,-0.01654 0.28525,-0.04961 0.0951,-0.03723 0.18396,-0.08475 0.26664,-0.142637 0.0331,-0.202565 0.0558,-0.40513 0.0682,-0.607721 0.0165,-0.202565 0.0248,-0.407194 0.0248,-0.613913 0,-0.202565 -0.0165,-0.40513 -0.0496,-0.607721 -0.0331,-0.202565 -0.0496,-0.403067 -0.0496,-0.601504 0,-0.01654 0.004,-0.02479 0.0124,-0.02479 0.008,-0.0041 0.0165,-0.0062 0.0248,-0.0062 0.0124,-0.0041 0.0227,-0.0083 0.031,-0.01241 0.008,-0.0083 0.0124,-0.02479 0.0124,-0.04961 0,-0.08681 -0.0124,-0.171556 -0.0372,-0.254238 -0.0248,-0.08268 -0.0372,-0.167429 -0.0372,-0.254238 0,-0.107501 0.0145,-0.212911 0.0434,-0.316257 0.0289,-0.103373 0.0434,-0.208783 0.0434,-0.316283 0,-0.0744 -0.0165,-0.148828 -0.0496,-0.223229 -0.0331,-0.07443 -0.0765,-0.140573 -0.13023,-0.198437 -0.0537,-0.05789 -0.11575,-0.103347 -0.18602,-0.136419 -0.0703,-0.03723 -0.14471,-0.05583 -0.22323,-0.05583 -0.0868,0 -0.17365,0.01035 -0.26046,0.03101 -0.0827,0.02066 -0.16949,0.04548 -0.26046,0.07443 -0.0909,0.02479 -0.18396,0.04752 -0.27905,0.06821 -0.0909,0.02066 -0.18809,0.03101 -0.29144,0.03101 -0.11991,0 -0.23773,-0.0083 -0.35348,-0.02482 -0.11576,-0.01654 -0.23358,-0.03514 -0.35346,-0.0558 -0.0579,-0.0083 -0.12404,-0.01654 -0.19844,-0.02482 -0.0703,-0.0083 -0.13848,-0.02273 -0.20463,-0.04339 -0.0661,-0.02069 -0.12197,-0.05167 -0.16745,-0.09303 -0.0455,-0.04135 -0.0682,-0.101283 -0.0682,-0.179838 0,-0.1447 0.0248,-0.254238 0.0744,-0.328665 0.0537,-0.07853 0.11782,-0.136419 0.19222,-0.17362 0.0786,-0.0372 0.16536,-0.05996 0.26046,-0.06821 0.0951,-0.0083 0.18602,-0.01654 0.27286,-0.02482 0.15708,-0.01241 0.3121,-0.02273 0.46508,-0.03101 0.15709,-0.01238 0.3142,-0.0186 0.47128,-0.0186 0.19431,0 0.38449,0.01241 0.57052,0.0372 0.19016,0.02069 0.3824,0.03101 0.57671,0.03101 0.13642,0 0.26665,0.02066 0.39066,0.06202 0.12404,0.04135 0.23151,0.10541 0.32248,0.192247 0.0951,0.08268 0.16949,0.188092 0.22322,0.316256 0.0538,0.128164 0.0806,0.276966 0.0806,0.446484 0,0.111628 -0.0248,0.221166 -0.0744,0.328666 -0.0455,0.103346 -0.10543,0.196347 -0.17983,0.279056 0.029,0.05374 0.0579,0.09094 0.0868,0.111601 0.0289,0.01654 0.0558,0.03307 0.0806,0.04961 0.0248,0.01241 0.0455,0.03101 0.062,0.05583 0.0165,0.02066 0.0248,0.06199 0.0248,0.12401 0,0.03307 0.004,0.07234 0.0124,0.117819 0.0124,0.04135 0.0413,0.06408 0.0868,0.06821 0,0.223256 -0.002,0.444421 -0.006,0.663549 -0.004,0.214947 -0.006,0.432011 -0.006,0.651113 0,0.186028 0,0.372057 0,0.558112 0.004,0.186028 0.0207,0.372057 0.0496,0.558086 0.0165,0.115755 0.0496,0.204655 0.0992,0.266647 0.0496,0.06202 0.13851,0.09303 0.26667,0.09303 0.18603,0 0.36999,-0.0186 0.55189,-0.0558 0.18191,-0.04135 0.36587,-0.06202 0.5519,-0.06202 0.1075,0 0.20878,0.02688 0.30387,0.08062 0.0992,0.05374 0.19222,0.111627 0.27906,0.173619 0.0909,0.06202 0.17775,0.119909 0.26043,0.173646 0.0827,0.05374 0.16124,0.08062 0.23566,0.08062 0.0331,0 0.0599,0.01238 0.0806,0.0372 0.0207,0.02066 0.0351,0.04755 0.0434,0.08062 0.0124,0.02894 0.0186,0.05993 0.0186,0.093 0.004,0.03307 0.006,0.06202 0.006,0.08684 z m 6.42773,-1.060397 c 0,0.111602 -0.0185,0.206693 -0.0558,0.285248 -0.0331,0.07855 -0.0786,0.148828 -0.13652,0.210846 -0.0537,0.06199 -0.11774,0.119883 -0.19209,0.17362 -0.0704,0.05374 -0.14261,0.111627 -0.21696,0.173646 -0.0579,0.04961 -0.1098,0.08681 -0.15505,0.111601 -0.0455,0.02482 -0.091,0.04548 -0.13652,0.06202 -0.0413,0.01654 -0.0868,0.03307 -0.13653,0.04961 -0.0455,0.01654 -0.0992,0.03926 -0.16113,0.06821 -0.0828,0.04135 -0.15293,0.08062 -0.21084,0.117819 -0.0537,0.03307 -0.10954,0.06408 -0.16743,0.09303 -0.0537,0.02894 -0.11369,0.05167 -0.17984,0.06821 -0.0662,0.02066 -0.14883,0.0372 -0.24805,0.04961 -0.16536,0.02066 -0.33279,0.04548 -0.50228,0.07443 -0.16537,0.02892 -0.33073,0.04339 -0.4961,0.04339 -0.0331,0 -0.0682,-0.0083 -0.10543,-0.02479 -0.0331,-0.01241 -0.0723,-0.02688 -0.11782,-0.04342 -0.0455,-0.01241 -0.0972,-0.02685 -0.15502,-0.04342 -0.0537,-0.01238 -0.11988,-0.0186 -0.19844,-0.0186 -0.0827,0 -0.14883,-0.01238 -0.19844,-0.0372 -0.0496,-0.02479 -0.0951,-0.05374 -0.13641,-0.08681 -0.0372,-0.03307 -0.0765,-0.06821 -0.11782,-0.10541 -0.0413,-0.04135 -0.0951,-0.07649 -0.16124,-0.105437 -0.24804,-0.111628 -0.45889,-0.245983 -0.63251,-0.403066 -0.17365,-0.15711 -0.32247,-0.332793 -0.44648,-0.527103 -0.12404,-0.19431 -0.22739,-0.405157 -0.31007,-0.632513 -0.0827,-0.227383 -0.15296,-0.465111 -0.21085,-0.713131 -0.0455,-0.173647 -0.0682,-0.347293 -0.0682,-0.520912 0,-0.227383 0.0537,-0.438203 0.16124,-0.632513 -0.0413,-0.115755 -0.062,-0.227383 -0.062,-0.334857 0,-0.07855 0.0227,-0.19431 0.0682,-0.347292 0.0455,-0.157083 0.10335,-0.314166 0.17365,-0.471276 0.0744,-0.157109 0.15295,-0.297656 0.23563,-0.421693 0.0868,-0.128137 0.16743,-0.206692 0.24183,-0.235637 0.0579,-0.02066 0.0972,-0.0372 0.11785,-0.04961 0.0248,-0.01654 0.0372,-0.05786 0.0372,-0.124011 0,-0.04961 0.0186,-0.09096 0.0558,-0.124036 0.0414,-0.03307 0.0889,-0.05993 0.14264,-0.08062 0.0579,-0.02066 0.11369,-0.03926 0.16742,-0.0558 0.0579,-0.01654 0.10541,-0.03307 0.14264,-0.04961 0.15296,-0.07443 0.29766,-0.13642 0.43408,-0.186034 0.14054,-0.05375 0.27905,-0.09715 0.41547,-0.130225 0.14055,-0.03721 0.28525,-0.06408 0.43408,-0.08062 0.14883,-0.01654 0.308,-0.02481 0.47749,-0.02481 0.091,0 0.17984,0.0124 0.26665,0.03721 0.0868,0.0248 0.16949,0.05788 0.24804,0.09922 0.0827,0.03721 0.16331,0.08061 0.24186,0.130233 0.0785,0.04545 0.15502,0.09094 0.22945,0.136419 h -0.006 c 0.062,0.0083 0.11991,0.02688 0.17364,0.0558 0.0579,0.02482 0.11769,0.04135 0.17987,0.04961 0.0579,0.07027 0.13229,0.138509 0.2233,0.204655 0.095,0.06199 0.18601,0.128138 0.27279,0.198438 0.091,0.07027 0.16748,0.146764 0.22939,0.22942 0.0662,0.07855 0.0992,0.169518 0.0992,0.272865 0,0.01654 -0.002,0.03307 -0.006,0.04961 0,0.01654 -0.002,0.03514 -0.006,0.0558 l 0.0249,-0.03098 c 0.0164,0.01238 0.031,0.03307 0.0434,0.06199 0.0164,0.02894 0.031,0.06202 0.0434,0.09922 0.0124,0.03307 0.0228,0.06821 0.031,0.105436 0.008,0.03307 0.0146,0.05993 0.0188,0.08059 0.0331,0.05376 0.0765,0.09716 0.13018,0.130228 0.0577,0.03307 0.10319,0.07855 0.13626,0.136446 -0.0413,0.04133 -0.0619,0.09507 -0.0619,0.16121 0,0.0703 0.0146,0.140573 0.0434,0.210847 0.0288,0.06615 0.0434,0.134355 0.0434,0.204655 0,0.08266 -0.004,0.163274 -0.0124,0.241829 -0.008,0.07443 -0.0124,0.152956 -0.0124,0.235638 0,0.06202 -0.0246,0.109564 -0.0744,0.142637 -0.0455,0.03307 -0.0971,0.06202 -0.15505,0.08681 -0.0537,0.02482 -0.10318,0.04961 -0.14869,0.07443 -0.0455,0.02479 -0.0683,0.05993 -0.0683,0.10541 0,0.03307 -0.0206,0.04961 -0.0622,0.04961 -0.037,-0.0041 -0.068,-0.0062 -0.0929,-0.0062 -0.18204,0 -0.3638,-0.02275 -0.54584,-0.06821 -0.17753,-0.04548 -0.35541,-0.06821 -0.53319,-0.06821 -0.19431,0 -0.38653,0.01445 -0.57671,0.04339 -0.19015,0.02482 -0.3824,0.0372 -0.57671,0.0372 -0.14467,0 -0.28938,-0.0041 -0.43408,-0.01238 -0.14054,-0.0083 -0.28318,-0.01241 -0.42788,-0.01241 -0.0372,0 -0.10747,0.0083 -0.21085,0.02479 -0.10334,0.01241 -0.21288,0.03101 -0.32864,0.05583 -0.11162,0.02066 -0.21912,0.04755 -0.32247,0.08062 -0.10335,0.02892 -0.17571,0.05786 -0.21704,0.08681 -0.004,0.02066 -0.006,0.04961 -0.006,0.08681 0,0.19431 0.0558,0.394811 0.16743,0.60153 0.11576,0.206693 0.26665,0.394785 0.45268,0.564303 0.18603,0.169492 0.39481,0.310039 0.62632,0.421667 0.23151,0.111628 0.46508,0.167428 0.70072,0.167428 0.13645,0 0.2708,0.0062 0.40309,0.0186 0.13642,0.0083 0.26871,0.03723 0.39688,0.08684 0.1116,-0.05376 0.21291,-0.115755 0.30385,-0.186055 0.0951,-0.07027 0.18602,-0.144674 0.27286,-0.223229 0.0868,-0.07855 0.17156,-0.159173 0.25411,-0.241855 0.0828,-0.08268 0.16748,-0.165365 0.25426,-0.248047 0.0167,-0.01654 0.0558,-0.03101 0.11801,-0.04339 0.0661,-0.01654 0.13626,-0.02894 0.21087,-0.03723 0.0744,-0.01238 0.14446,-0.02066 0.21061,-0.02479 0.0704,-0.0083 0.118,-0.01241 0.14287,-0.01241 0.095,0 0.18389,0.01447 0.26644,0.04342 0.0249,0.09507 0.0373,0.188092 0.0373,0.279056 z m -0.93027,-2.517695 c 0,-0.06199 -0.0103,-0.121947 -0.031,-0.179838 -0.0206,-0.05786 -0.037,-0.117819 -0.0495,-0.17981 -0.0206,-0.115756 -0.0312,-0.227383 -0.0312,-0.334884 0,-0.111601 -0.0164,-0.223228 -0.0495,-0.334856 h -0.006 c 0,0.02482 -0.008,0.04961 -0.0249,0.07443 -0.0167,0.02066 -0.0394,0.03101 -0.0683,0.03101 -0.0497,0 -0.0971,-0.01241 -0.14262,-0.03723 -0.0455,-0.02479 -0.0848,-0.0558 -0.11784,-0.093 -0.15708,-0.0703 -0.29972,-0.136446 -0.42788,-0.198438 -0.12402,-0.06202 -0.25012,-0.115755 -0.37828,-0.161237 -0.12401,-0.04961 -0.25837,-0.08681 -0.40307,-0.111627 -0.14054,-0.02894 -0.30384,-0.04342 -0.4899,-0.04342 -0.0165,0 -0.0331,0.0021 -0.0496,0.0062 -0.0124,0 -0.0248,0.0062 -0.0372,0.0186 l 0.031,0.06821 -0.0496,0.01241 c -0.11163,0.02066 -0.20463,0.04133 -0.27905,0.06202 -0.0703,0.01654 -0.13436,0.04133 -0.19222,0.0744 -0.0579,0.03307 -0.11576,0.07443 -0.17365,0.124036 -0.0537,0.04545 -0.12401,0.10541 -0.21085,0.179838 -0.0413,0.0372 -0.0868,0.06615 -0.13642,0.08681 -0.0455,0.01654 -0.093,0.03307 -0.14263,0.04961 -0.0455,0.01238 -0.0909,0.02685 -0.13642,0.04339 -0.0413,0.01654 -0.0765,0.04342 -0.10541,0.08062 -0.029,0.103372 -0.0724,0.204655 -0.13023,0.303874 -0.0537,0.09506 -0.0806,0.196373 -0.0806,0.303847 0,0.06202 0.0248,0.117819 0.0744,0.167428 0.0537,0.04548 0.11988,0.08475 0.19844,0.117819 0.0827,0.03307 0.17155,0.06202 0.26665,0.08681 0.0992,0.02482 0.19637,0.04342 0.29143,0.05583 0.0951,0.01241 0.18191,0.02273 0.26046,0.03101 0.0827,0.0041 0.14676,0.0062 0.19225,0.0062 0.15708,0 0.31213,-0.01447 0.46508,-0.04339 0.15296,-0.03307 0.30798,-0.04964 0.46509,-0.04964 0.16123,0 0.32244,0.0083 0.48368,0.02482 0.16124,0.01241 0.32247,0.0186 0.48368,0.0186 0.0413,0 0.10338,-0.0021 0.18606,-0.0062 0.0827,-0.0041 0.16327,-0.01447 0.24186,-0.03101 0.0825,-0.02066 0.15292,-0.04755 0.21087,-0.08062 0.0619,-0.0372 0.0929,-0.08475 0.0929,-0.142636 z m 9.29269,3.652493 c 0,0.05789 -0.0143,0.105437 -0.0434,0.142637 -0.0288,0.0372 -0.0662,0.06615 -0.11165,0.08681 -0.0413,0.02066 -0.0889,0.03307 -0.14261,0.0372 -0.0495,0.0083 -0.0971,0.01241 -0.14261,0.01241 -0.0619,0 -0.12409,-0.0041 -0.18601,-0.01241 -0.0619,-0.0083 -0.12409,-0.01654 -0.186,-0.02479 -0.0828,0.02895 -0.18203,0.05786 -0.29766,0.08681 -0.11165,0.03307 -0.21298,0.04961 -0.30374,0.04961 -0.0249,0 -0.0497,-0.0041 -0.0746,-0.01241 -0.0206,-0.0083 -0.0413,-0.01238 -0.0619,-0.01238 -0.0704,0 -0.14261,0.01238 -0.21696,0.0372 -0.0704,0.02895 -0.14075,0.04339 -0.21087,0.04339 -0.11985,0 -0.23574,-0.01651 -0.3474,-0.04958 -0.10742,-0.02894 -0.22119,-0.04754 -0.34105,-0.05583 -0.1942,-0.01654 -0.34528,-0.09094 -0.4527,-0.223229 -0.10319,-0.136446 -0.15902,-0.297657 -0.16748,-0.483712 0.12832,-0.07853 0.26273,-0.132291 0.40322,-0.16121 0.14473,-0.02895 0.28946,-0.04342 0.43392,-0.04342 0.0828,0 0.16351,0.0021 0.24209,0.0062 0.0825,0.0041 0.16537,0.01035 0.24792,0.0186 -0.0124,-0.310039 -0.0392,-0.620104 -0.0807,-0.930169 -0.0413,-0.310039 -0.0619,-0.622168 -0.0619,-0.936361 0,-0.1075 0.002,-0.214974 0.006,-0.322474 0.008,-0.107474 0.0228,-0.214974 0.0434,-0.322448 0.0209,-0.1075 0.0476,-0.21291 0.0807,-0.316256 0.0331,-0.1075 0.0497,-0.215 0.0497,-0.322474 0,-0.07027 -0.0103,-0.134356 -0.0312,-0.192246 -0.0206,-0.06199 -0.0474,-0.124011 -0.0804,-0.186029 -0.0291,-0.04961 -0.0476,-0.10541 -0.0558,-0.167428 -0.008,-0.06202 -0.0185,-0.124011 -0.031,-0.186029 -0.0124,-0.06615 -0.0312,-0.130228 -0.0558,-0.192246 -0.0249,-0.06202 -0.0662,-0.117819 -0.12409,-0.167428 -0.0537,-0.04961 -0.13018,-0.08887 -0.2294,-0.117819 -0.0992,-0.02895 -0.22939,-0.04342 -0.39079,-0.04342 -0.0495,0 -0.12409,0.0083 -0.2233,0.02482 -0.095,0.01238 -0.19421,0.03101 -0.29766,0.0558 -0.0992,0.02066 -0.19421,0.04755 -0.28522,0.08062 -0.0868,0.02895 -0.14658,0.05996 -0.17965,0.09303 -0.0206,0.02066 -0.0476,0.04961 -0.0807,0.08681 -0.0288,0.0372 -0.0619,0.07649 -0.0992,0.117818 -0.0331,0.0372 -0.0661,0.07234 -0.0992,0.10541 -0.0331,0.02895 -0.0619,0.04548 -0.0868,0.04961 -0.0622,0.01241 -0.10954,0.02275 -0.14261,0.03101 -0.0291,0.0083 -0.0537,0.02066 -0.0744,0.03723 -0.0167,0.01651 -0.0312,0.04133 -0.0437,0.0744 -0.0122,0.02895 -0.0331,0.07234 -0.0619,0.130228 -0.008,0.01654 -0.0249,0.04961 -0.0495,0.09922 -0.0249,0.04548 -0.0497,0.06821 -0.0746,0.06821 -0.0206,0 -0.0349,-0.0083 -0.0434,-0.02482 -0.008,-0.01651 -0.0228,-0.02479 -0.0434,-0.02479 -0.008,0 -0.0206,0.0062 -0.037,0.0186 -0.0124,0.0083 -0.0228,0.01654 -0.0312,0.02482 v 0.17362 c -0.0288,0.03307 -0.0558,0.05167 -0.0804,0.05583 -0.0206,0 -0.0394,0.0021 -0.0558,0.0062 -0.0124,0.0041 -0.0228,0.01447 -0.031,0.03101 -0.004,0.01654 -0.006,0.0558 -0.006,0.117819 0,0.04548 -0.0103,0.08681 -0.031,0.12401 -0.0206,0.03723 -0.0434,0.07443 -0.0683,0.111628 -0.0206,0.0372 -0.0413,0.07649 -0.0619,0.117819 -0.0206,0.0372 -0.031,0.08062 -0.031,0.130228 0,0.08268 0.0103,0.163301 0.031,0.241855 0.0249,0.0744 0.037,0.152956 0.037,0.235638 0,0.05374 -0.008,0.09922 -0.0246,0.136419 -0.0167,0.03723 -0.0373,0.07236 -0.0622,0.105437 -0.0206,0.02892 -0.0392,0.05786 -0.0558,0.08681 -0.0164,0.02894 -0.0246,0.06408 -0.0246,0.10541 0,0.05789 0.0103,0.111628 0.031,0.161237 0.0249,0.04548 0.0495,0.09303 0.0744,0.142637 0.0249,0.04961 0.0476,0.101282 0.0683,0.155019 0.0249,0.05374 0.037,0.111628 0.037,0.173646 0,0.07027 -0.008,0.142611 -0.0246,0.217038 -0.0167,0.07027 -0.0249,0.14261 -0.0249,0.217038 0,0.08681 0.0124,0.155019 0.0373,0.204628 0.0288,0.04548 0.064,0.08062 0.1053,0.10541 0.0455,0.02482 0.0971,0.04342 0.15505,0.05583 0.0579,0.01241 0.11562,0.03101 0.17356,0.0558 0.0622,0.02066 0.12409,0.05167 0.186,0.09303 0.0622,0.0372 0.11986,0.09509 0.17384,0.17362 l 0.037,-0.0062 c 0.0704,0 0.12197,0.02895 0.15504,0.08681 0.0331,0.05789 0.0497,0.117819 0.0497,0.179837 0,0.05789 -0.0124,0.109564 -0.0373,0.15502 -0.0249,0.04135 -0.0373,0.09716 -0.0373,0.167454 0,0.04961 -0.0537,0.09094 -0.16113,0.124011 -0.10742,0.03307 -0.22939,0.05789 -0.36592,0.07443 -0.13626,0.02066 -0.26855,0.03307 -0.39687,0.0372 -0.12409,0.0083 -0.20664,0.01241 -0.24792,0.01241 -0.0497,0 -0.12621,-0.0021 -0.22939,-0.0062 -0.0992,0 -0.21299,-0.0041 -0.34132,-0.01241 -0.12382,-0.0041 -0.254,-0.01238 -0.39052,-0.02479 -0.13653,-0.01241 -0.26247,-0.03101 -0.37835,-0.0558 -0.11563,-0.02069 -0.21485,-0.04961 -0.29766,-0.08684 -0.0786,-0.03307 -0.12806,-0.0744 -0.1487,-0.124011 -0.0206,-0.04961 -0.0415,-0.103346 -0.0622,-0.161237 -0.0206,-0.06202 -0.031,-0.121946 -0.031,-0.179837 0,-0.06202 0.0145,-0.117819 0.0434,-0.167428 0.0331,-0.04961 0.0725,-0.09509 0.11801,-0.13642 0.0619,-0.05789 0.13017,-0.09096 0.20452,-0.09922 0.0744,-0.01241 0.14684,-0.0186 0.21696,-0.0186 0.0746,-0.0041 0.14472,-0.01035 0.21087,-0.0186 0.0704,-0.01241 0.13018,-0.04548 0.17992,-0.09922 0.0537,-0.05376 0.095,-0.138509 0.12409,-0.254264 0.0331,-0.115755 0.0495,-0.279056 0.0495,-0.489876 0,-0.05376 -0.004,-0.1075 -0.0124,-0.161237 -0.008,-0.05789 -0.0185,-0.111628 -0.031,-0.161237 -0.0124,-0.05374 -0.0228,-0.101283 -0.031,-0.142637 -0.008,-0.04133 -0.0124,-0.07234 -0.0124,-0.093 0,-0.02482 0.006,-0.05167 0.0185,-0.08062 0.0167,-0.02895 0.0331,-0.05789 0.0497,-0.08681 0.0206,-0.03307 0.037,-0.06821 0.0495,-0.105437 0.0167,-0.0372 0.0249,-0.07853 0.0249,-0.12401 0,-0.07027 -0.0146,-0.138509 -0.0434,-0.204655 -0.0249,-0.06615 -0.0373,-0.134356 -0.0373,-0.204629 0,-0.05786 0.0103,-0.113691 0.0312,-0.167428 0.0206,-0.05374 0.031,-0.109564 0.031,-0.167429 0,-0.04548 -0.0124,-0.0889 -0.0373,-0.130228 -0.0249,-0.04133 -0.0373,-0.08681 -0.0373,-0.136419 0,-0.04548 0.008,-0.09096 0.0249,-0.136419 0.0167,-0.04964 0.0249,-0.09922 0.0249,-0.148854 0,-0.107474 -0.0124,-0.217038 -0.0373,-0.328639 -0.0246,-0.115756 -0.0474,-0.227383 -0.068,-0.334884 -0.0249,-0.128137 -0.0725,-0.223228 -0.14288,-0.285247 -0.0661,-0.06615 -0.14261,-0.115755 -0.22939,-0.148828 -0.0868,-0.03307 -0.1778,-0.05996 -0.27279,-0.08062 -0.095,-0.02066 -0.18177,-0.05167 -0.26035,-0.093 -0.0786,-0.04548 -0.14473,-0.1075 -0.19844,-0.186055 -0.0497,-0.08268 -0.0746,-0.202565 -0.0746,-0.359648 0,-0.1075 0.0312,-0.190183 0.0931,-0.248047 0.0661,-0.05789 0.14473,-0.09922 0.23575,-0.124037 0.0907,-0.02894 0.186,-0.04547 0.28522,-0.04961 0.10319,-0.0041 0.19209,-0.0062 0.2667,-0.0062 0.11986,0 0.23759,0.0186 0.35322,0.05581 0.12012,0.03307 0.23997,0.05374 0.35983,0.06202 0.0537,0.0041 0.10531,0.02273 0.15505,0.0558 0.0495,0.02895 0.095,0.06615 0.13626,0.111628 0.0415,0.04133 0.0746,0.08887 0.0992,0.142637 0.0249,0.05374 0.0394,0.107474 0.0434,0.161211 0,0.02482 0.009,0.0703 0.0249,0.136445 0.0167,0.06199 0.0352,0.126074 0.0558,0.19222 0.0249,0.06615 0.0497,0.126101 0.0744,0.179837 0.0291,0.04961 0.0579,0.07443 0.0871,0.07443 0.0246,-0.02069 0.0413,-0.04342 0.0495,-0.06821 0.0124,-0.02895 0.0228,-0.05583 0.031,-0.08062 0.004,-0.02482 0.031,-0.05789 0.0807,-0.09922 0.0537,-0.04135 0.11165,-0.08475 0.17356,-0.130227 0.0661,-0.04548 0.12833,-0.0889 0.18601,-0.130228 0.0622,-0.04135 0.10557,-0.07443 0.13017,-0.09922 0.0249,-0.02895 0.0437,-0.05789 0.0558,-0.08681 0.0167,-0.03307 0.0312,-0.06202 0.0434,-0.08684 0.0167,-0.02892 0.0352,-0.05167 0.0558,-0.06821 0.0249,-0.01654 0.0622,-0.02479 0.11166,-0.02479 h 0.031 c 0.0455,0 0.0889,-0.0186 0.13044,-0.05583 0.0413,-0.04133 0.095,-0.08681 0.16113,-0.13642 0.0661,-0.04961 0.15293,-0.09301 0.26035,-0.130222 0.10768,-0.04134 0.25029,-0.06201 0.42809,-0.06201 0.15293,0 0.30586,0.0041 0.45879,0.0124 0.15293,0.0041 0.29766,0.02481 0.43418,0.06201 0.14049,0.03721 0.27067,0.09509 0.39053,0.173619 0.12409,0.07855 0.23151,0.188119 0.32252,0.328666 0.0704,0.111627 0.12806,0.19431 0.17357,0.248047 0.0455,0.05376 0.0828,0.105436 0.11165,0.155045 0.0288,0.04961 0.0476,0.109538 0.0558,0.179838 0.0124,0.07027 0.0185,0.175683 0.0185,0.316256 0,0.05786 0.0103,0.111628 0.031,0.161211 0.0209,0.04964 0.0437,0.101309 0.0683,0.155046 0.0291,0.04961 0.0537,0.103346 0.0746,0.161237 0.0206,0.05786 0.031,0.12401 0.031,0.198437 0,0.144674 -0.008,0.289375 -0.0249,0.434076 -0.0167,0.140546 -0.0249,0.283183 -0.0249,0.427884 0,0.103346 -0.0206,0.204629 -0.0619,0.303847 -0.0373,0.09922 -0.0558,0.200502 -0.0558,0.303848 0,0.04964 0.0124,0.09716 0.0373,0.142637 0.0246,0.04548 0.037,0.09716 0.037,0.155019 0,0.0703 -0.008,0.142637 -0.0249,0.217064 -0.0164,0.07027 -0.0246,0.140547 -0.0246,0.21082 0,0.06615 0.0143,0.124037 0.0434,0.173646 0.0331,0.04961 0.0495,0.10541 0.0495,0.167429 0,0.03307 -0.008,0.05996 -0.0249,0.08062 -0.0122,0.02066 -0.0288,0.04133 -0.0495,0.06202 -0.0167,0.02066 -0.0331,0.04339 -0.0497,0.06821 -0.0122,0.02066 -0.0185,0.04755 -0.0185,0.08062 0,0.06199 0.0145,0.126074 0.0434,0.192219 0.0331,0.06202 0.0744,0.11991 0.12409,0.173646 0.0495,0.04961 0.10531,0.09094 0.16748,0.124011 0.0619,0.02895 0.12409,0.04342 0.18601,0.04342 0.0537,0 0.0992,-0.01035 0.13652,-0.03101 0.0413,-0.02479 0.0847,-0.0372 0.13018,-0.0372 0.0577,0 0.10953,0.02479 0.15504,0.0744 0.0495,0.04548 0.0907,0.101282 0.12383,0.167428 0.0373,0.06615 0.0643,0.134382 0.0807,0.204655 0.0206,0.07027 0.031,0.128164 0.031,0.17362 z m -1.33932,-2.337832 c 0,-0.04135 -0.0146,-0.08062 -0.0434,-0.117819 -0.0249,-0.04135 -0.0601,-0.06202 -0.10557,-0.06202 -0.0455,0 -0.0765,0.02273 -0.0929,0.06821 -0.0167,0.04135 -0.0249,0.08062 -0.0249,0.117819 0,0.04548 0.008,0.0889 0.0249,0.130228 0.0164,0.04135 0.0495,0.06202 0.0992,0.06202 0.0413,0 0.0722,-0.01241 0.0929,-0.0372 0.0249,-0.02895 0.0415,-0.07856 0.0497,-0.148828 z m 0.1053,1.190625 c 0,-0.02895 -0.0124,-0.05167 -0.037,-0.06821 -0.0209,-0.02066 -0.0434,-0.03723 -0.0683,-0.04961 -0.008,0.02479 -0.0228,0.04961 -0.0434,0.0744 -0.0206,0.02482 -0.0415,0.05167 -0.0622,0.08062 -0.0206,0.02895 -0.0413,0.05789 -0.0619,0.08681 -0.0167,0.02895 -0.0249,0.05789 -0.0249,0.08684 0,0.03307 0.0103,0.05786 0.031,0.0744 0.0209,0.01654 0.0455,0.03101 0.0746,0.04342 0.004,-0.02482 0.0164,-0.04961 0.037,-0.07443 0.0249,-0.02479 0.0476,-0.05167 0.0683,-0.08062 0.0206,-0.02892 0.0394,-0.0558 0.0558,-0.08062 0.0206,-0.02892 0.031,-0.05993 0.031,-0.093 z m -4.12379,-1.333261 c 0,-0.02894 -0.006,-0.06408 -0.0185,-0.10541 -0.008,-0.04135 -0.0228,-0.08062 -0.0434,-0.117819 -0.0167,-0.04135 -0.0394,-0.07443 -0.0683,-0.09922 -0.0249,-0.02895 -0.0558,-0.04342 -0.0929,-0.04342 -0.0455,0 -0.0849,0.01447 -0.11801,0.04342 -0.0331,0.02479 -0.0744,0.0372 -0.12409,0.0372 h -0.0246 c -0.0124,0.04548 -0.0188,0.08887 -0.0188,0.130227 l 0.006,0.0372 0.006,-0.0186 c 0.0124,0.04548 0.0373,0.08062 0.0746,0.10541 0.037,0.02482 0.0765,0.04755 0.11774,0.06821 0.0455,0.01656 0.091,0.03307 0.13626,0.04964 0.0455,0.01651 0.0849,0.03926 0.11801,0.06821 0.0331,-0.03723 0.0495,-0.0889 0.0495,-0.155045 z"
       fill="#27ae60"
       id="path233"
       style="stroke-width:0.264583" />
  </g>
</svg>
